<svg width="150" height="25" viewBox="0 0 150 25" fill="none" xmlns="http://www.w3.org/2000/svg">
<g clip-path="url(#clip0_10_21)">
<path d="M0.941599 18.4591L0.731249 18.82C-0.379021 20.7249 0.265159 23.1692 2.17006 24.2794C4.07496 25.3897 6.51924 24.7455 7.62951 22.8406L7.83986 22.4797C8.95008 20.5748 8.30598 18.1305 6.40105 17.0203C4.49615 15.91 2.05187 16.5542 0.941599 18.4591Z" fill="#00A1FF"/>
<path opacity="0.25" d="M5.36755 6.15894L14.9943 22.833C16.0967 24.7424 18.5383 25.3966 20.4478 24.2942C22.3573 23.1918 23.0115 20.7502 21.9091 18.8407L12.2823 2.16674C11.1799 0.257241 8.73831 -0.39698 6.82881 0.70545C4.91936 1.80787 4.26513 4.24944 5.36755 6.15894Z" fill="#00A1FF"/>
<path opacity="0.25" d="M18.7386 6.15894L28.3654 22.833C29.4678 24.7424 31.9094 25.3966 33.8188 24.2942C35.7282 23.1918 36.3825 20.7502 35.2801 18.8407L25.6533 2.16674C24.5509 0.257241 22.1093 -0.39698 20.1998 0.70545C18.2904 1.80787 17.6362 4.24944 18.7386 6.15894Z" fill="#00A1FF"/>
<path d="M5.36755 6.15888L10.9734 15.8686C12.0759 17.7781 14.5175 18.4323 16.4269 17.3299C18.3364 16.2274 18.9906 13.7858 17.8882 11.8764L12.2823 2.16668C11.1799 0.257254 8.73829 -0.396977 6.8288 0.705443C4.91935 1.80787 4.26513 4.24948 5.36755 6.15888Z" fill="#00A1FF"/>
<path d="M18.7425 6.15888L24.4209 15.9942C25.5233 17.9036 27.9649 18.5579 29.8744 17.4554C31.7838 16.353 32.4381 13.9114 31.3356 12.002L25.6573 2.16668C24.5548 0.257251 22.1132 -0.39698 20.2038 0.70545C18.2943 1.80787 17.6401 4.24948 18.7425 6.15888Z" fill="#00A1FF"/>
<path d="M48.5914 18.73V7.09364H51.0516V16.7016H56.0402V18.73H48.5914ZM61.5672 18.9005C60.6846 18.9005 59.9214 18.713 59.2774 18.338C58.6373 17.9592 58.143 17.4327 57.7945 16.7584C57.446 16.0804 57.2718 15.2944 57.2718 14.4005C57.2718 13.4989 57.446 12.7111 57.7945 12.0368C58.143 11.3588 58.6373 10.8323 59.2774 10.4573C59.9214 10.0785 60.6846 9.88909 61.5672 9.88909C62.4498 9.88909 63.2112 10.0785 63.8513 10.4573C64.4952 10.8323 64.9915 11.3588 65.3399 12.0368C65.6884 12.7111 65.8627 13.4989 65.8627 14.4005C65.8627 15.2944 65.6884 16.0804 65.3399 16.7584C64.9915 17.4327 64.4952 17.9592 63.8513 18.338C63.2112 18.713 62.4498 18.9005 61.5672 18.9005ZM61.5786 17.0255C61.9801 17.0255 62.3153 16.9118 62.5843 16.6845C62.8532 16.4535 63.0559 16.1391 63.1922 15.7414C63.3324 15.3436 63.4024 14.891 63.4024 14.3834C63.4024 13.8758 63.3324 13.4232 63.1922 13.0255C63.0559 12.6277 62.8532 12.3133 62.5843 12.0823C62.3153 11.8512 61.9801 11.7357 61.5786 11.7357C61.1733 11.7357 60.8324 11.8512 60.5559 12.0823C60.2831 12.3133 60.0767 12.6277 59.9365 13.0255C59.8002 13.4232 59.732 13.8758 59.732 14.3834C59.732 14.891 59.8002 15.3436 59.9365 15.7414C60.0767 16.1391 60.2831 16.4535 60.5559 16.6845C60.8324 16.9118 61.1733 17.0255 61.5786 17.0255ZM71.3797 18.9005C70.4971 18.9005 69.7339 18.713 69.0899 18.338C68.4498 17.9592 67.9555 17.4327 67.607 16.7584C67.2585 16.0804 67.0843 15.2944 67.0843 14.4005C67.0843 13.4989 67.2585 12.7111 67.607 12.0368C67.9555 11.3588 68.4498 10.8323 69.0899 10.4573C69.7339 10.0785 70.4971 9.88909 71.3797 9.88909C72.2623 9.88909 73.0237 10.0785 73.6638 10.4573C74.3077 10.8323 74.804 11.3588 75.1524 12.0368C75.5009 12.7111 75.6752 13.4989 75.6752 14.4005C75.6752 15.2944 75.5009 16.0804 75.1524 16.7584C74.804 17.4327 74.3077 17.9592 73.6638 18.338C73.0237 18.713 72.2623 18.9005 71.3797 18.9005ZM71.3911 17.0255C71.7926 17.0255 72.1278 16.9118 72.3968 16.6845C72.6657 16.4535 72.8684 16.1391 73.0047 15.7414C73.1449 15.3436 73.2149 14.891 73.2149 14.3834C73.2149 13.8758 73.1449 13.4232 73.0047 13.0255C72.8684 12.6277 72.6657 12.3133 72.3968 12.0823C72.1278 11.8512 71.7926 11.7357 71.3911 11.7357C70.9858 11.7357 70.6449 11.8512 70.3684 12.0823C70.0956 12.3133 69.8892 12.6277 69.749 13.0255C69.6127 13.4232 69.5445 13.8758 69.5445 14.3834C69.5445 14.891 69.6127 15.3436 69.749 15.7414C69.8892 16.1391 70.0956 16.4535 70.3684 16.6845C70.6449 16.9118 70.9858 17.0255 71.3911 17.0255ZM77.249 18.73V10.0027H79.5559V11.5425H79.6581C79.8399 11.0311 80.143 10.6277 80.5672 10.3323C80.9915 10.0368 81.499 9.88909 82.0899 9.88909C82.6884 9.88909 83.1979 10.0387 83.6184 10.338C84.0388 10.6334 84.3191 11.0349 84.4593 11.5425H84.5502C84.7282 11.0425 85.0502 10.6429 85.5161 10.3436C85.9858 10.0406 86.5407 9.88909 87.1809 9.88909C87.9952 9.88909 88.6562 10.1486 89.1638 10.6675C89.6752 11.1827 89.9309 11.9137 89.9309 12.8607V18.73H87.5161V13.338C87.5161 12.8531 87.3873 12.4895 87.1297 12.247C86.8721 12.0046 86.5502 11.8834 86.1638 11.8834C85.7244 11.8834 85.3816 12.0236 85.1354 12.3039C84.8892 12.5804 84.7661 12.9459 84.7661 13.4005V18.73H82.4195V13.2868C82.4195 12.8588 82.2964 12.5179 82.0502 12.2641C81.8077 12.0103 81.4877 11.8834 81.0899 11.8834C80.821 11.8834 80.5786 11.9516 80.3627 12.088C80.1506 12.2205 79.982 12.408 79.857 12.6505C79.732 12.8891 79.6695 13.1694 79.6695 13.4914V18.73H77.249ZM101.904 10.4402C101.858 9.98189 101.663 9.62583 101.319 9.37204C100.974 9.11826 100.506 8.99136 99.9152 8.99136C99.5137 8.99136 99.1747 9.04818 98.8982 9.16182C98.6217 9.27167 98.4095 9.42508 98.2618 9.62204C98.1179 9.81901 98.0459 10.0425 98.0459 10.2925C98.0383 10.5008 98.0819 10.6827 98.1766 10.838C98.2751 10.9933 98.4095 11.1277 98.58 11.2414C98.7505 11.3512 98.9474 11.4478 99.1709 11.5311C99.3944 11.6107 99.633 11.6789 99.8868 11.7357L100.932 11.9857C101.44 12.0993 101.906 12.2508 102.33 12.4402C102.754 12.6296 103.122 12.8626 103.432 13.1391C103.743 13.4156 103.983 13.7414 104.154 14.1164C104.328 14.4914 104.417 14.9213 104.421 15.4061C104.417 16.1183 104.235 16.7357 103.875 17.2584C103.519 17.7773 103.004 18.1808 102.33 18.4686C101.66 18.7527 100.851 18.8948 99.9039 18.8948C98.9645 18.8948 98.1463 18.7508 97.4493 18.463C96.7561 18.1751 96.2145 17.7489 95.8243 17.1845C95.438 16.6164 95.2353 15.9137 95.2164 15.0766H97.597C97.6236 15.4667 97.7353 15.7925 97.9323 16.0539C98.133 16.3114 98.4001 16.5065 98.7334 16.6391C99.0705 16.7679 99.4512 16.8323 99.8755 16.8323C100.292 16.8323 100.654 16.7717 100.961 16.6505C101.271 16.5292 101.512 16.3607 101.682 16.1448C101.853 15.9289 101.938 15.6808 101.938 15.4005C101.938 15.1391 101.86 14.9194 101.705 14.7414C101.553 14.5633 101.33 14.4118 101.035 14.2868C100.743 14.1618 100.385 14.0482 99.9607 13.9459L98.6936 13.6277C97.7126 13.3891 96.938 13.016 96.3698 12.5084C95.8016 12.0008 95.5194 11.3171 95.5232 10.4573C95.5194 9.75273 95.7069 9.1372 96.0857 8.61068C96.4683 8.08417 96.9929 7.67318 97.6595 7.37773C98.3262 7.08227 99.0838 6.93454 99.9323 6.93454C100.796 6.93454 101.55 7.08227 102.194 7.37773C102.841 7.67318 103.345 8.08417 103.705 8.61068C104.065 9.1372 104.25 9.74704 104.262 10.4402H101.904ZM107.752 18.73L105.377 10.0027H107.826L109.178 15.8664H109.258L110.667 10.0027H113.07L114.502 15.8323H114.576L115.905 10.0027H118.348L115.979 18.73H113.417L111.917 13.2414H111.809L110.309 18.73H107.752ZM119.64 18.73V10.0027H122.06V18.73H119.64ZM120.856 8.87773C120.496 8.87773 120.187 8.75841 119.929 8.51977C119.676 8.27735 119.549 7.98757 119.549 7.65045C119.549 7.31712 119.676 7.03114 119.929 6.7925C120.187 6.55007 120.496 6.42886 120.856 6.42886C121.215 6.42886 121.522 6.55007 121.776 6.7925C122.034 7.03114 122.162 7.31712 122.162 7.65045C122.162 7.98757 122.034 8.27735 121.776 8.51977C121.522 8.75841 121.215 8.87773 120.856 8.87773ZM128.641 10.0027V11.8209H123.385V10.0027H128.641ZM124.579 7.91182H126.999V16.0482C126.999 16.2717 127.033 16.4459 127.101 16.5709C127.169 16.6921 127.264 16.7773 127.385 16.8266C127.51 16.8758 127.654 16.9005 127.817 16.9005C127.931 16.9005 128.044 16.891 128.158 16.872C128.272 16.8493 128.359 16.8323 128.419 16.8209L128.8 18.622C128.679 18.6599 128.509 18.7035 128.289 18.7527C128.069 18.8058 127.802 18.838 127.488 18.8493C126.904 18.872 126.393 18.7944 125.954 18.6164C125.518 18.4383 125.179 18.1618 124.937 17.7868C124.694 17.4118 124.575 16.9383 124.579 16.3664V7.91182ZM134.067 18.9005C133.173 18.9005 132.404 18.7111 131.76 18.3323C131.12 17.9497 130.628 17.4194 130.283 16.7414C129.942 16.0633 129.772 15.283 129.772 14.4005C129.772 13.5065 129.944 12.7224 130.289 12.0482C130.637 11.3702 131.132 10.8417 131.772 10.463C132.412 10.0804 133.173 9.88909 134.056 9.88909C134.817 9.88909 135.484 10.0273 136.056 10.3039C136.628 10.5804 137.08 10.9686 137.414 11.4686C137.747 11.9686 137.931 12.5558 137.965 13.23H135.681C135.616 12.7944 135.446 12.444 135.169 12.1789C134.897 11.9099 134.539 11.7755 134.096 11.7755C133.721 11.7755 133.393 11.8777 133.113 12.0823C132.836 12.283 132.62 12.5766 132.465 12.963C132.31 13.3493 132.232 13.8171 132.232 14.3664C132.232 14.9232 132.308 15.3967 132.459 15.7868C132.615 16.177 132.832 16.4743 133.113 16.6789C133.393 16.8834 133.721 16.9857 134.096 16.9857C134.372 16.9857 134.62 16.9289 134.84 16.8152C135.063 16.7016 135.247 16.5368 135.391 16.3209C135.539 16.1012 135.635 15.838 135.681 15.5311H137.965C137.927 16.1978 137.745 16.7849 137.419 17.2925C137.098 17.7963 136.652 18.1902 136.084 18.4743C135.516 18.7584 134.844 18.9005 134.067 18.9005ZM141.935 13.6845V18.73H139.515V7.09364H141.867V11.5425H141.969C142.166 11.0273 142.484 10.6239 142.924 10.3323C143.363 10.0368 143.914 9.88909 144.577 9.88909C145.183 9.88909 145.712 10.0217 146.162 10.2868C146.617 10.5482 146.969 10.9251 147.219 11.4175C147.473 11.9061 147.598 12.4914 147.594 13.1732V18.73H145.174V13.605C145.178 13.0671 145.041 12.6486 144.765 12.3493C144.492 12.0501 144.109 11.9005 143.617 11.9005C143.287 11.9005 142.996 11.9705 142.742 12.1107C142.492 12.2508 142.295 12.4554 142.151 12.7243C142.011 12.9895 141.939 13.3095 141.935 13.6845Z" fill="white"/>
</g>
<defs>
<clipPath id="clip0_10_21">
<rect width="150" height="25" fill="white"/>
</clipPath>
</defs>
</svg>
