<svg width="152" height="29" viewBox="0 0 152 29" fill="none" xmlns="http://www.w3.org/2000/svg">
<path d="M2.94332 20.4595L2.73297 20.8204C1.6227 22.7253 2.26688 25.1696 4.17178 26.2798C6.07668 27.3901 8.52096 26.7459 9.63123 24.841L9.84158 24.4801C10.9518 22.5752 10.3077 20.1309 8.40277 19.0207C6.49787 17.9104 4.05359 18.5546 2.94332 20.4595Z" fill="#00A1FF"/>
<path opacity="0.25" d="M7.36539 8.15958L16.9922 24.8337C18.0946 26.7431 20.5362 27.3973 22.4456 26.2949C24.355 25.1925 25.0093 22.7509 23.9069 20.8414L14.2801 4.16735C13.1777 2.2579 10.7361 1.60368 8.82664 2.70611C6.91719 3.80853 6.26297 6.25013 7.36539 8.15958Z" fill="#00A1FF"/>
<path opacity="0.25" d="M20.7404 8.15958L30.3672 24.8337C31.4696 26.7431 33.9112 27.3973 35.8206 26.2949C37.73 25.1925 38.3843 22.7509 37.2819 20.8414L27.6551 4.16735C26.5527 2.2579 24.1111 1.60368 22.2016 2.70611C20.2922 3.80853 19.638 6.25013 20.7404 8.15958Z" fill="#00A1FF"/>
<path d="M7.36676 8.15914L12.9726 17.8688C14.0751 19.7783 16.5167 20.4325 18.4261 19.3301C20.3356 18.2276 20.9898 15.786 19.8874 13.8766L14.2815 4.16691C13.1791 2.25747 10.7375 1.60324 8.82801 2.70566C6.91856 3.80809 6.26434 6.24969 7.36676 8.15914Z" fill="#00A1FF"/>
<path d="M20.7396 8.15857L26.418 17.9938C27.5204 19.9033 29.962 20.5575 31.8714 19.4551C33.7809 18.3526 34.4351 15.911 33.3327 14.0016L27.6543 4.16634C26.5519 2.25689 24.1103 1.60267 22.2008 2.70509C20.2914 3.80751 19.6372 6.24912 20.7396 8.15857Z" fill="#00A1FF"/>
<path d="M51.0114 21V9.36364H53.4716V18.9716H58.4602V21H51.0114ZM63.9872 21.1705C63.1046 21.1705 62.3414 20.983 61.6974 20.608C61.0573 20.2292 60.563 19.7027 60.2145 19.0284C59.866 18.3504 59.6918 17.5644 59.6918 16.6705C59.6918 15.7689 59.866 14.9811 60.2145 14.3068C60.563 13.6288 61.0573 13.1023 61.6974 12.7273C62.3414 12.3485 63.1046 12.1591 63.9872 12.1591C64.8698 12.1591 65.6312 12.3485 66.2713 12.7273C66.9152 13.1023 67.4115 13.6288 67.7599 14.3068C68.1084 14.9811 68.2827 15.7689 68.2827 16.6705C68.2827 17.5644 68.1084 18.3504 67.7599 19.0284C67.4115 19.7027 66.9152 20.2292 66.2713 20.608C65.6312 20.983 64.8698 21.1705 63.9872 21.1705ZM63.9986 19.2955C64.4001 19.2955 64.7353 19.1818 65.0043 18.9545C65.2732 18.7235 65.4759 18.4091 65.6122 18.0114C65.7524 17.6136 65.8224 17.161 65.8224 16.6534C65.8224 16.1458 65.7524 15.6932 65.6122 15.2955C65.4759 14.8977 65.2732 14.5833 65.0043 14.3523C64.7353 14.1212 64.4001 14.0057 63.9986 14.0057C63.5933 14.0057 63.2524 14.1212 62.9759 14.3523C62.7031 14.5833 62.4967 14.8977 62.3565 15.2955C62.2202 15.6932 62.152 16.1458 62.152 16.6534C62.152 17.161 62.2202 17.6136 62.3565 18.0114C62.4967 18.4091 62.7031 18.7235 62.9759 18.9545C63.2524 19.1818 63.5933 19.2955 63.9986 19.2955ZM73.7997 21.1705C72.9171 21.1705 72.1539 20.983 71.5099 20.608C70.8698 20.2292 70.3755 19.7027 70.027 19.0284C69.6785 18.3504 69.5043 17.5644 69.5043 16.6705C69.5043 15.7689 69.6785 14.9811 70.027 14.3068C70.3755 13.6288 70.8698 13.1023 71.5099 12.7273C72.1539 12.3485 72.9171 12.1591 73.7997 12.1591C74.6823 12.1591 75.4437 12.3485 76.0838 12.7273C76.7277 13.1023 77.224 13.6288 77.5724 14.3068C77.9209 14.9811 78.0952 15.7689 78.0952 16.6705C78.0952 17.5644 77.9209 18.3504 77.5724 19.0284C77.224 19.7027 76.7277 20.2292 76.0838 20.608C75.4437 20.983 74.6823 21.1705 73.7997 21.1705ZM73.8111 19.2955C74.2126 19.2955 74.5478 19.1818 74.8168 18.9545C75.0857 18.7235 75.2884 18.4091 75.4247 18.0114C75.5649 17.6136 75.6349 17.161 75.6349 16.6534C75.6349 16.1458 75.5649 15.6932 75.4247 15.2955C75.2884 14.8977 75.0857 14.5833 74.8168 14.3523C74.5478 14.1212 74.2126 14.0057 73.8111 14.0057C73.4058 14.0057 73.0649 14.1212 72.7884 14.3523C72.5156 14.5833 72.3092 14.8977 72.169 15.2955C72.0327 15.6932 71.9645 16.1458 71.9645 16.6534C71.9645 17.161 72.0327 17.6136 72.169 18.0114C72.3092 18.4091 72.5156 18.7235 72.7884 18.9545C73.0649 19.1818 73.4058 19.2955 73.8111 19.2955ZM79.669 21V12.2727H81.9759V13.8125H82.0781C82.2599 13.3011 82.563 12.8977 82.9872 12.6023C83.4115 12.3068 83.919 12.1591 84.5099 12.1591C85.1084 12.1591 85.6179 12.3087 86.0384 12.608C86.4588 12.9034 86.7391 13.3049 86.8793 13.8125H86.9702C87.1482 13.3125 87.4702 12.9129 87.9361 12.6136C88.4058 12.3106 88.9607 12.1591 89.6009 12.1591C90.4152 12.1591 91.0762 12.4186 91.5838 12.9375C92.0952 13.4527 92.3509 14.1837 92.3509 15.1307V21H89.9361V15.608C89.9361 15.1231 89.8073 14.7595 89.5497 14.517C89.2921 14.2746 88.9702 14.1534 88.5838 14.1534C88.1444 14.1534 87.8016 14.2936 87.5554 14.5739C87.3092 14.8504 87.1861 15.2159 87.1861 15.6705V21H84.8395V15.5568C84.8395 15.1288 84.7164 14.7879 84.4702 14.5341C84.2277 14.2803 83.9077 14.1534 83.5099 14.1534C83.241 14.1534 82.9986 14.2216 82.7827 14.358C82.5705 14.4905 82.402 14.678 82.277 14.9205C82.152 15.1591 82.0895 15.4394 82.0895 15.7614V21H79.669ZM104.324 12.7102C104.278 12.2519 104.083 11.8958 103.739 11.642C103.394 11.3883 102.926 11.2614 102.335 11.2614C101.934 11.2614 101.595 11.3182 101.318 11.4318C101.042 11.5417 100.83 11.6951 100.682 11.892C100.538 12.089 100.466 12.3125 100.466 12.5625C100.458 12.7708 100.502 12.9527 100.597 13.108C100.695 13.2633 100.83 13.3977 101 13.5114C101.17 13.6212 101.367 13.7178 101.591 13.8011C101.814 13.8807 102.053 13.9489 102.307 14.0057L103.352 14.2557C103.86 14.3693 104.326 14.5208 104.75 14.7102C105.174 14.8996 105.542 15.1326 105.852 15.4091C106.163 15.6856 106.403 16.0114 106.574 16.3864C106.748 16.7614 106.837 17.1913 106.841 17.6761C106.837 18.3883 106.655 19.0057 106.295 19.5284C105.939 20.0473 105.424 20.4508 104.75 20.7386C104.08 21.0227 103.271 21.1648 102.324 21.1648C101.384 21.1648 100.566 21.0208 99.8693 20.733C99.1761 20.4451 98.6345 20.0189 98.2443 19.4545C97.858 18.8864 97.6553 18.1837 97.6364 17.3466H100.017C100.044 17.7367 100.155 18.0625 100.352 18.3239C100.553 18.5814 100.82 18.7765 101.153 18.9091C101.491 19.0379 101.871 19.1023 102.295 19.1023C102.712 19.1023 103.074 19.0417 103.381 18.9205C103.691 18.7992 103.932 18.6307 104.102 18.4148C104.273 18.1989 104.358 17.9508 104.358 17.6705C104.358 17.4091 104.28 17.1894 104.125 17.0114C103.973 16.8333 103.75 16.6818 103.455 16.5568C103.163 16.4318 102.805 16.3182 102.381 16.2159L101.114 15.8977C100.133 15.6591 99.358 15.286 98.7898 14.7784C98.2216 14.2708 97.9394 13.5871 97.9432 12.7273C97.9394 12.0227 98.1269 11.4072 98.5057 10.8807C98.8883 10.3542 99.4129 9.94318 100.08 9.64773C100.746 9.35227 101.504 9.20455 102.352 9.20455C103.216 9.20455 103.97 9.35227 104.614 9.64773C105.261 9.94318 105.765 10.3542 106.125 10.8807C106.485 11.4072 106.67 12.017 106.682 12.7102H104.324ZM110.172 21L107.797 12.2727H110.246L111.598 18.1364H111.678L113.087 12.2727H115.49L116.922 18.1023H116.996L118.325 12.2727H120.768L118.399 21H115.837L114.337 15.5114H114.229L112.729 21H110.172ZM122.06 21V12.2727H124.48V21H122.06ZM123.276 11.1477C122.916 11.1477 122.607 11.0284 122.349 10.7898C122.096 10.5473 121.969 10.2576 121.969 9.92045C121.969 9.58712 122.096 9.30114 122.349 9.0625C122.607 8.82008 122.916 8.69886 123.276 8.69886C123.635 8.69886 123.942 8.82008 124.196 9.0625C124.454 9.30114 124.582 9.58712 124.582 9.92045C124.582 10.2576 124.454 10.5473 124.196 10.7898C123.942 11.0284 123.635 11.1477 123.276 11.1477ZM131.061 12.2727V14.0909H125.805V12.2727H131.061ZM126.999 10.1818H129.419V18.3182C129.419 18.5417 129.453 18.7159 129.521 18.8409C129.589 18.9621 129.684 19.0473 129.805 19.0966C129.93 19.1458 130.074 19.1705 130.237 19.1705C130.351 19.1705 130.464 19.161 130.578 19.142C130.692 19.1193 130.779 19.1023 130.839 19.0909L131.22 20.892C131.099 20.9299 130.929 20.9735 130.709 21.0227C130.489 21.0758 130.222 21.108 129.908 21.1193C129.324 21.142 128.813 21.0644 128.374 20.8864C127.938 20.7083 127.599 20.4318 127.357 20.0568C127.114 19.6818 126.995 19.2083 126.999 18.6364V10.1818ZM136.487 21.1705C135.593 21.1705 134.824 20.9811 134.18 20.6023C133.54 20.2197 133.048 19.6894 132.703 19.0114C132.362 18.3333 132.192 17.553 132.192 16.6705C132.192 15.7765 132.364 14.9924 132.709 14.3182C133.057 13.6402 133.552 13.1117 134.192 12.733C134.832 12.3504 135.593 12.1591 136.476 12.1591C137.237 12.1591 137.904 12.2973 138.476 12.5739C139.048 12.8504 139.5 13.2386 139.834 13.7386C140.167 14.2386 140.351 14.8258 140.385 15.5H138.101C138.036 15.0644 137.866 14.714 137.589 14.4489C137.317 14.1799 136.959 14.0455 136.516 14.0455C136.141 14.0455 135.813 14.1477 135.533 14.3523C135.256 14.553 135.04 14.8466 134.885 15.233C134.73 15.6193 134.652 16.0871 134.652 16.6364C134.652 17.1932 134.728 17.6667 134.879 18.0568C135.035 18.447 135.252 18.7443 135.533 18.9489C135.813 19.1534 136.141 19.2557 136.516 19.2557C136.792 19.2557 137.04 19.1989 137.26 19.0852C137.483 18.9716 137.667 18.8068 137.811 18.5909C137.959 18.3712 138.055 18.108 138.101 17.8011H140.385C140.347 18.4678 140.165 19.0549 139.839 19.5625C139.518 20.0663 139.072 20.4602 138.504 20.7443C137.936 21.0284 137.264 21.1705 136.487 21.1705ZM144.355 15.9545V21H141.935V9.36364H144.287V13.8125H144.389C144.586 13.2973 144.904 12.8939 145.344 12.6023C145.783 12.3068 146.334 12.1591 146.997 12.1591C147.603 12.1591 148.132 12.2917 148.582 12.5568C149.037 12.8182 149.389 13.1951 149.639 13.6875C149.893 14.1761 150.018 14.7614 150.014 15.4432V21H147.594V15.875C147.598 15.3371 147.461 14.9186 147.185 14.6193C146.912 14.3201 146.529 14.1705 146.037 14.1705C145.707 14.1705 145.416 14.2405 145.162 14.3807C144.912 14.5208 144.715 14.7254 144.571 14.9943C144.431 15.2595 144.359 15.5795 144.355 15.9545Z" fill="#111C2D"/>
</svg>
